Coordinates
version=1
nRows=9
nColumns=24
inDegrees=yes

Units are S.I. units (second, meters, Newtons, ...)
Angles are in degrees.

endheader
time	pelvis_tilt	pelvis_list	pelvis_rotation	pelvis_tx	pelvis_ty	pelvis_tz	hip_flexion_r	hip_adduction_r	hip_rotation_r	knee_angle_r	ankle_angle_r	subtalar_angle_r	mtp_angle_r	hip_flexion_l	hip_adduction_l	hip_rotation_l	knee_angle_l	ankle_angle_l	subtalar_angle_l	mtp_angle_l	lumbar_extension	lumbar_bending	lumbar_rotation
      8.09000000	      3.27596550	      4.94246870	      6.36260759	      0.07878022	      0.89740125	      0.20743231	     -1.54588968	      0.90784287	      2.52421771	     -7.56377658	     13.14570703	     -6.24708332	      0.00000000	     20.93997469	      6.88670709	     -1.80679471	    -59.24208888	      5.22043828	     -4.74372606	      0.00000000	    -24.09244077	     -4.67872013	    -10.12163355
      8.10000000	      3.24542810	      5.18773869	      6.23273061	      0.08718478	      0.89744852	      0.20760360	     -2.21964656	      0.72828555	      2.74729217	     -7.38492246	     13.57188717	     -6.41030915	      0.00000000	     21.35705915	      7.17973729	     -1.96177192	    -56.80939640	      6.02862321	     -5.22116107	      0.00000000	    -24.23882242	     -5.00854945	    -10.05104234
      8.11000000	      3.22465775	      5.37855869	      6.10504822	      0.09562404	      0.89734181	      0.20772196	     -2.90622572	      0.60204450	      2.98330393	     -7.19415511	     13.98448165	     -6.58304949	      0.00000000	     21.66362568	      7.42264119	     -2.05788208	    -54.14192013	      6.73623176	     -5.50414915	      0.00000000	    -24.39210879	     -5.27830897	     -9.93547254
      8.12000000	      3.15853251	      5.49833337	      6.00343955	      0.10415858	      0.89697377	      0.20775795	     -3.54216604	      0.54388055	      3.16620243	     -7.00709965	     14.44158150	     -6.75129785	      0.00000000	     21.92924474	      7.60231595	     -2.09948933	    -51.27950685	      7.35224962	     -5.55036100	      0.00000000	    -24.44985955	     -5.45364024	     -9.86498564
      8.13000000	      3.20361138	      5.56017518	      5.84399967	      0.11278416	      0.89663351	      0.20772663	     -4.30737422	      0.53914108	      3.40160036	     -6.79798376	     14.85066152	     -6.86855515	      0.00000000	     21.95886737	      7.73790416	     -2.04057291	    -48.19230917	      7.79235149	     -5.45812308	      0.00000000	    -24.60608266	     -5.54637030	     -9.63540557
      8.14000000	      3.21417350	      5.55026252	      5.71154471	      0.12153842	      0.89605061	      0.20760736	     -5.04317891	      0.60114558	      3.58449640	     -6.58326883	     15.28676277	     -6.94641192	      0.00000000	     21.94389444	      7.82233335	     -1.88908606	    -44.95881944	      8.10980522	     -5.19817169	      0.00000000	    -24.68070128	     -5.54529056	     -9.44468316
      8.15000000	      3.17715053	      5.46753934	      5.57925828	      0.13046145	      0.89522419	      0.20740504	     -5.74322136	      0.72479473	      3.73870487	     -6.34623739	     15.73220831	     -6.97341954	      0.00000000	     21.89836442	      7.85587326	     -1.63952649	    -41.59874749	      8.27626994	     -4.83380687	      0.00000000	    -24.64517512	     -5.45541223	     -9.25540748
      8.16000000	      3.27428671	      5.33041854	      5.41391138	      0.13941114	      0.89443161	      0.20714581	     -6.57136437	      0.90501285	      3.90300432	     -6.14105142	     16.16764770	     -6.94008143	      0.00000000	     21.62070722	      7.85624327	     -1.20984539	    -38.10224225	      8.22905387	     -4.49973836	      0.00000000	    -24.77222399	     -5.28492906	     -8.92646927
      8.17000000	      3.25895597	      5.13571828	      5.26840957	      0.14859178	      0.89332621	      0.20680886	     -7.30078306	      1.12792980	      4.05581124	     -5.91607379	     16.59913535	     -6.88573886	      0.00000000	     21.39077275	      7.81759737	     -0.66088719	    -34.52880695	      7.98965949	     -4.18438814	      0.00000000	    -24.69571570	     -5.05646598	     -8.63875754
